<mxfile host="Electron" modified="2023-08-27T09:57:53.846Z" agent="Mozilla/5.0 (Windows NT 10.0; Win64; x64) AppleWebKit/537.36 (KHTML, like Gecko) draw.io/21.6.8 Chrome/114.0.5735.289 Electron/25.5.0 Safari/537.36" version="21.6.8" etag="F-nA7u9m8qzFsbf0V7Xt" type="device">
  <diagram id="zrYroSxy4IwkqOdJvDGL" name="Page-1">
    <mxGraphModel dx="794" dy="559" grid="1" gridSize="10" guides="1" tooltips="1" connect="1" arrows="1" fold="1" page="1" pageScale="1" pageWidth="850" pageHeight="1100" math="0" shadow="0">
      <root>
        <mxCell id="0" />
        <mxCell id="1" parent="0" />
        <mxCell id="_oqPOE3NUgd4fe6lKPdp-6" style="edgeStyle=orthogonalEdgeStyle;rounded=0;orthogonalLoop=1;jettySize=auto;html=1;entryX=0.5;entryY=0;entryDx=0;entryDy=0;" edge="1" parent="1" source="_oqPOE3NUgd4fe6lKPdp-1" target="_oqPOE3NUgd4fe6lKPdp-5">
          <mxGeometry relative="1" as="geometry" />
        </mxCell>
        <mxCell id="_oqPOE3NUgd4fe6lKPdp-1" value="Character Controller" style="rounded=1;whiteSpace=wrap;html=1;" vertex="1" parent="1">
          <mxGeometry x="210" y="190" width="120" height="60" as="geometry" />
        </mxCell>
        <mxCell id="_oqPOE3NUgd4fe6lKPdp-3" style="edgeStyle=orthogonalEdgeStyle;rounded=0;orthogonalLoop=1;jettySize=auto;html=1;" edge="1" parent="1" source="_oqPOE3NUgd4fe6lKPdp-2" target="_oqPOE3NUgd4fe6lKPdp-1">
          <mxGeometry relative="1" as="geometry" />
        </mxCell>
        <mxCell id="_oqPOE3NUgd4fe6lKPdp-2" value="" style="ellipse;whiteSpace=wrap;html=1;aspect=fixed;" vertex="1" parent="1">
          <mxGeometry x="255" y="110" width="30" height="30" as="geometry" />
        </mxCell>
        <mxCell id="_oqPOE3NUgd4fe6lKPdp-28" style="edgeStyle=orthogonalEdgeStyle;rounded=0;orthogonalLoop=1;jettySize=auto;html=1;entryX=0.5;entryY=0;entryDx=0;entryDy=0;" edge="1" parent="1" source="_oqPOE3NUgd4fe6lKPdp-4" target="_oqPOE3NUgd4fe6lKPdp-30">
          <mxGeometry relative="1" as="geometry">
            <mxPoint x="380" y="750" as="targetPoint" />
          </mxGeometry>
        </mxCell>
        <mxCell id="_oqPOE3NUgd4fe6lKPdp-4" value="return Keyboard object Ptr" style="rounded=1;whiteSpace=wrap;html=1;" vertex="1" parent="1">
          <mxGeometry x="210" y="600" width="120" height="60" as="geometry" />
        </mxCell>
        <mxCell id="_oqPOE3NUgd4fe6lKPdp-8" style="edgeStyle=orthogonalEdgeStyle;rounded=0;orthogonalLoop=1;jettySize=auto;html=1;entryX=0.5;entryY=0;entryDx=0;entryDy=0;" edge="1" parent="1" source="_oqPOE3NUgd4fe6lKPdp-5" target="_oqPOE3NUgd4fe6lKPdp-7">
          <mxGeometry relative="1" as="geometry" />
        </mxCell>
        <mxCell id="_oqPOE3NUgd4fe6lKPdp-10" value="&lt;font style=&quot;font-size: 16px;&quot;&gt;No&lt;/font&gt;" style="edgeLabel;html=1;align=center;verticalAlign=middle;resizable=0;points=[];" vertex="1" connectable="0" parent="_oqPOE3NUgd4fe6lKPdp-8">
          <mxGeometry x="-0.4464" y="-1" relative="1" as="geometry">
            <mxPoint as="offset" />
          </mxGeometry>
        </mxCell>
        <mxCell id="_oqPOE3NUgd4fe6lKPdp-9" style="edgeStyle=orthogonalEdgeStyle;rounded=0;orthogonalLoop=1;jettySize=auto;html=1;entryX=0.5;entryY=0;entryDx=0;entryDy=0;" edge="1" parent="1" source="_oqPOE3NUgd4fe6lKPdp-5" target="_oqPOE3NUgd4fe6lKPdp-4">
          <mxGeometry relative="1" as="geometry" />
        </mxCell>
        <mxCell id="_oqPOE3NUgd4fe6lKPdp-11" value="&lt;font style=&quot;font-size: 16px;&quot;&gt;Yes&lt;/font&gt;" style="edgeLabel;html=1;align=center;verticalAlign=middle;resizable=0;points=[];" vertex="1" connectable="0" parent="_oqPOE3NUgd4fe6lKPdp-9">
          <mxGeometry x="-0.4" relative="1" as="geometry">
            <mxPoint y="16" as="offset" />
          </mxGeometry>
        </mxCell>
        <mxCell id="_oqPOE3NUgd4fe6lKPdp-5" value="Is keyboard connected" style="rhombus;whiteSpace=wrap;html=1;fillColor=#e51400;fontColor=#ffffff;strokeColor=#B20000;" vertex="1" parent="1">
          <mxGeometry x="210" y="310" width="120" height="120" as="geometry" />
        </mxCell>
        <mxCell id="_oqPOE3NUgd4fe6lKPdp-13" style="edgeStyle=orthogonalEdgeStyle;rounded=0;orthogonalLoop=1;jettySize=auto;html=1;" edge="1" parent="1" source="_oqPOE3NUgd4fe6lKPdp-7" target="_oqPOE3NUgd4fe6lKPdp-12">
          <mxGeometry relative="1" as="geometry" />
        </mxCell>
        <mxCell id="_oqPOE3NUgd4fe6lKPdp-17" value="&lt;font style=&quot;font-size: 16px;&quot;&gt;Yes&lt;/font&gt;" style="edgeLabel;html=1;align=center;verticalAlign=middle;resizable=0;points=[];" vertex="1" connectable="0" parent="_oqPOE3NUgd4fe6lKPdp-13">
          <mxGeometry x="-0.275" y="4" relative="1" as="geometry">
            <mxPoint as="offset" />
          </mxGeometry>
        </mxCell>
        <mxCell id="_oqPOE3NUgd4fe6lKPdp-15" style="edgeStyle=orthogonalEdgeStyle;rounded=0;orthogonalLoop=1;jettySize=auto;html=1;entryX=0.5;entryY=0;entryDx=0;entryDy=0;" edge="1" parent="1" source="_oqPOE3NUgd4fe6lKPdp-7" target="_oqPOE3NUgd4fe6lKPdp-19">
          <mxGeometry relative="1" as="geometry" />
        </mxCell>
        <mxCell id="_oqPOE3NUgd4fe6lKPdp-22" value="&lt;font style=&quot;font-size: 16px;&quot;&gt;No&lt;/font&gt;" style="edgeLabel;html=1;align=center;verticalAlign=middle;resizable=0;points=[];" vertex="1" connectable="0" parent="_oqPOE3NUgd4fe6lKPdp-15">
          <mxGeometry x="-0.4065" y="-3" relative="1" as="geometry">
            <mxPoint as="offset" />
          </mxGeometry>
        </mxCell>
        <mxCell id="_oqPOE3NUgd4fe6lKPdp-7" value="Is Controller Connected" style="rhombus;whiteSpace=wrap;html=1;fillColor=#e51400;fontColor=#ffffff;strokeColor=#B20000;" vertex="1" parent="1">
          <mxGeometry x="440" y="410" width="120" height="120" as="geometry" />
        </mxCell>
        <mxCell id="_oqPOE3NUgd4fe6lKPdp-29" style="edgeStyle=orthogonalEdgeStyle;rounded=0;orthogonalLoop=1;jettySize=auto;html=1;entryX=0.5;entryY=0;entryDx=0;entryDy=0;" edge="1" parent="1" source="_oqPOE3NUgd4fe6lKPdp-12" target="_oqPOE3NUgd4fe6lKPdp-30">
          <mxGeometry relative="1" as="geometry">
            <mxPoint x="380" y="750" as="targetPoint" />
          </mxGeometry>
        </mxCell>
        <mxCell id="_oqPOE3NUgd4fe6lKPdp-12" value="return Controller object Ptr" style="rounded=1;whiteSpace=wrap;html=1;" vertex="1" parent="1">
          <mxGeometry x="440" y="600" width="120" height="60" as="geometry" />
        </mxCell>
        <mxCell id="_oqPOE3NUgd4fe6lKPdp-26" style="edgeStyle=orthogonalEdgeStyle;rounded=0;orthogonalLoop=1;jettySize=auto;html=1;entryX=0.5;entryY=0;entryDx=0;entryDy=0;" edge="1" parent="1" source="_oqPOE3NUgd4fe6lKPdp-19" target="_oqPOE3NUgd4fe6lKPdp-25">
          <mxGeometry relative="1" as="geometry" />
        </mxCell>
        <mxCell id="_oqPOE3NUgd4fe6lKPdp-19" value="return Null Ptr" style="rounded=1;whiteSpace=wrap;html=1;" vertex="1" parent="1">
          <mxGeometry x="670" y="600" width="120" height="60" as="geometry" />
        </mxCell>
        <mxCell id="_oqPOE3NUgd4fe6lKPdp-25" value="&lt;font color=&quot;#000000&quot;&gt;Exit&lt;/font&gt;" style="ellipse;whiteSpace=wrap;html=1;aspect=fixed;fillColor=#f5f5f5;gradientColor=#b3b3b3;strokeColor=#666666;" vertex="1" parent="1">
          <mxGeometry x="715" y="740" width="30" height="30" as="geometry" />
        </mxCell>
        <mxCell id="_oqPOE3NUgd4fe6lKPdp-30" value="&lt;font color=&quot;#000000&quot;&gt;Exit&lt;/font&gt;" style="ellipse;whiteSpace=wrap;html=1;aspect=fixed;fillColor=#f5f5f5;gradientColor=#b3b3b3;strokeColor=#666666;" vertex="1" parent="1">
          <mxGeometry x="370" y="740" width="30" height="30" as="geometry" />
        </mxCell>
      </root>
    </mxGraphModel>
  </diagram>
</mxfile>
